<?xml version="1.0" standalone="no"?>
<!DOCTYPE svg PUBLIC "-//W3C//DTD SVG 20010904//EN"
 "http://www.w3.org/TR/2001/REC-SVG-20010904/DTD/svg10.dtd">
<svg version="1.0" xmlns="http://www.w3.org/2000/svg"
 width="400.000000pt" height="400.000000pt" viewBox="0 0 400.000000 400.000000"
 preserveAspectRatio="xMidYMid meet">
<metadata>
Created by potrace 1.16, written by Peter Selinger 2001-2019
</metadata>
<g transform="translate(0.000000,400.000000) scale(0.100000,-0.100000)"
fill="#000000" stroke="none">
<path d="M1887 3763 c-4 -3 -32 -5 -63 -4 -41 2 -61 -2 -75 -15 -23 -21 -26
-64 -4 -64 9 0 15 9 15 24 0 31 19 45 53 39 22 -4 27 -11 27 -34 0 -26 -3 -29
-32 -29 -18 0 -40 -5 -48 -10 -12 -8 -9 -10 13 -10 15 0 27 -4 27 -10 0 -5 7
-10 15 -10 8 0 15 5 15 10 0 12 30 13 48 2 9 -6 7 -13 -7 -29 -20 -21 -29 -85
-17 -114 4 -9 6 -38 4 -65 -3 -47 -4 -49 -35 -52 -18 -2 -33 -8 -33 -13 0 -6
-12 -10 -27 -9 -50 4 -63 0 -63 -15 0 -8 8 -15 18 -15 16 -1 16 -1 0 -14 -11
-8 -15 -20 -11 -34 4 -18 13 -22 43 -22 21 0 40 -5 42 -10 2 -6 32 -10 68 -10
107 1 114 0 129 -15 14 -13 9 -15 -39 -16 l-55 -1 40 -13 c40 -13 40 -13 -42
-14 -49 -1 -85 -6 -89 -12 -12 -20 -23 -164 -12 -170 5 -3 -16 -19 -46 -34
-30 -15 -53 -32 -50 -36 3 -5 -1 -9 -9 -9 -8 0 -26 -12 -41 -27 -21 -21 -25
-23 -21 -7 6 19 6 19 -9 0 -9 -11 -12 -22 -7 -25 5 -4 -8 -30 -28 -59 -21 -28
-40 -50 -42 -48 -5 5 -11 -82 -13 -169 l-1 -60 113 -3 112 -3 0 58 c0 74 16
131 38 137 23 6 64 2 79 -7 9 -6 11 -31 6 -98 l-6 -89 72 0 71 0 -1 53 c0 28
-4 75 -8 104 l-7 52 40 -2 c23 0 44 -6 49 -11 4 -7 10 -6 16 3 14 22 23 -42
19 -128 l-3 -71 95 0 c150 0 143 -5 138 109 -3 85 -7 103 -36 156 -40 74 -103
143 -162 180 -39 23 -46 33 -46 59 0 17 -4 57 -8 88 -7 52 -9 57 -37 63 -29 7
-30 9 -28 56 2 27 0 52 -4 56 -4 3 -7 2 -7 -4 0 -12 -72 -26 -93 -17 -9 3 -13
14 -10 27 4 18 3 19 -6 7 -9 -12 -11 -11 -11 8 0 14 -8 26 -22 32 -16 6 3 9
68 9 91 1 91 1 87 -23 -5 -22 -3 -23 54 -19 78 5 83 8 83 44 l0 31 -62 -6
c-35 -4 -98 -9 -140 -12 l-78 -4 0 70 0 71 48 -3 c51 -3 49 2 38 -80 -5 -38 8
-53 18 -20 4 12 15 17 38 15 18 -1 33 -2 33 -3 0 0 24 -3 53 -5 50 -4 53 -3
50 18 -3 20 -9 22 -68 23 -73 1 -92 16 -72 56 12 24 13 98 1 98 -4 0 -14 3
-23 6 -13 5 -16 -2 -16 -40 0 -34 -4 -46 -15 -46 -11 0 -15 12 -15 44 0 37 4
45 23 50 16 4 19 8 9 15 -10 6 -8 10 10 14 34 10 50 8 43 -3 -3 -5 1 -10 9
-10 8 0 18 5 21 10 3 6 18 10 33 10 21 0 24 2 12 10 -8 5 -27 10 -42 10 -24 0
-28 4 -28 29 0 22 5 30 24 33 30 6 46 -8 46 -39 0 -14 6 -23 15 -23 20 0 19
44 -1 65 -12 12 -32 16 -70 14 -30 -2 -57 0 -61 4 -8 9 -108 9 -116 0z"/>
</g>
</svg>
